<mxfile host="app.diagrams.net" modified="2024-06-07T22:07:29.857Z" agent="Mozilla/5.0 (Macintosh; Intel Mac OS X 10_15_7) AppleWebKit/605.1.15 (KHTML, like Gecko) Version/17.4.1 Safari/605.1.15" etag="BI_2e9tj5Z8blhAfFNDv" version="24.5.2" type="github">
  <diagram name="Page-1" id="T8L8l-l0xfYRDc2yPp9P">
    <mxGraphModel dx="1617" dy="1035" grid="1" gridSize="10" guides="1" tooltips="1" connect="1" arrows="1" fold="1" page="1" pageScale="1" pageWidth="1400" pageHeight="850" math="0" shadow="0">
      <root>
        <mxCell id="0" />
        <mxCell id="1" parent="0" />
        <mxCell id="K7_w2QCnUeSxzUvsQyZu-1" value="" style="ellipse;whiteSpace=wrap;html=1;" parent="1" vertex="1">
          <mxGeometry x="302" y="339" width="270" height="172" as="geometry" />
        </mxCell>
        <mxCell id="K7_w2QCnUeSxzUvsQyZu-7" value="" style="rounded=1;whiteSpace=wrap;html=1;" parent="1" vertex="1">
          <mxGeometry x="647" y="600.75" width="220" height="120" as="geometry" />
        </mxCell>
        <mxCell id="K7_w2QCnUeSxzUvsQyZu-8" value="" style="ellipse;whiteSpace=wrap;html=1;aspect=fixed;" parent="1" vertex="1">
          <mxGeometry x="1037" y="324.5" width="200" height="200" as="geometry" />
        </mxCell>
        <mxCell id="K7_w2QCnUeSxzUvsQyZu-9" value="" style="ellipse;whiteSpace=wrap;html=1;aspect=fixed;" parent="1" vertex="1">
          <mxGeometry x="1038" y="89" width="200" height="200" as="geometry" />
        </mxCell>
        <mxCell id="K7_w2QCnUeSxzUvsQyZu-10" value="" style="ellipse;whiteSpace=wrap;html=1;aspect=fixed;" parent="1" vertex="1">
          <mxGeometry x="1032" y="560.5" width="200" height="200" as="geometry" />
        </mxCell>
        <mxCell id="K7_w2QCnUeSxzUvsQyZu-11" value="" style="rounded=1;whiteSpace=wrap;html=1;" parent="1" vertex="1">
          <mxGeometry x="647" y="364.75" width="220" height="120" as="geometry" />
        </mxCell>
        <mxCell id="K7_w2QCnUeSxzUvsQyZu-12" value="" style="rounded=1;whiteSpace=wrap;html=1;" parent="1" vertex="1">
          <mxGeometry x="647" y="130.75" width="220" height="120" as="geometry" />
        </mxCell>
        <mxCell id="K7_w2QCnUeSxzUvsQyZu-15" value="" style="endArrow=classic;html=1;rounded=0;exitX=1;exitY=0.5;exitDx=0;exitDy=0;entryX=0;entryY=0.5;entryDx=0;entryDy=0;" parent="1" source="K7_w2QCnUeSxzUvsQyZu-11" target="K7_w2QCnUeSxzUvsQyZu-8" edge="1">
          <mxGeometry width="50" height="50" relative="1" as="geometry">
            <mxPoint x="607" y="550.75" as="sourcePoint" />
            <mxPoint x="937" y="424.75" as="targetPoint" />
          </mxGeometry>
        </mxCell>
        <mxCell id="K7_w2QCnUeSxzUvsQyZu-16" value="" style="endArrow=classic;html=1;rounded=0;exitX=1;exitY=0.5;exitDx=0;exitDy=0;entryX=0;entryY=0.5;entryDx=0;entryDy=0;" parent="1" source="K7_w2QCnUeSxzUvsQyZu-7" target="K7_w2QCnUeSxzUvsQyZu-10" edge="1">
          <mxGeometry width="50" height="50" relative="1" as="geometry">
            <mxPoint x="877" y="434.75" as="sourcePoint" />
            <mxPoint x="997" y="434.75" as="targetPoint" />
          </mxGeometry>
        </mxCell>
        <mxCell id="K7_w2QCnUeSxzUvsQyZu-17" value="" style="endArrow=classic;html=1;rounded=0;exitX=1;exitY=0.5;exitDx=0;exitDy=0;entryX=0;entryY=0.5;entryDx=0;entryDy=0;entryPerimeter=0;" parent="1" target="K7_w2QCnUeSxzUvsQyZu-35" edge="1">
          <mxGeometry width="50" height="50" relative="1" as="geometry">
            <mxPoint x="867" y="190.22" as="sourcePoint" />
            <mxPoint x="987" y="190.22" as="targetPoint" />
          </mxGeometry>
        </mxCell>
        <mxCell id="K7_w2QCnUeSxzUvsQyZu-18" value="" style="endArrow=classic;html=1;rounded=0;exitX=1;exitY=0.5;exitDx=0;exitDy=0;entryX=0;entryY=0.5;entryDx=0;entryDy=0;" parent="1" target="K7_w2QCnUeSxzUvsQyZu-11" edge="1" source="K7_w2QCnUeSxzUvsQyZu-1">
          <mxGeometry width="50" height="50" relative="1" as="geometry">
            <mxPoint x="557" y="424.25" as="sourcePoint" />
            <mxPoint x="677" y="424.25" as="targetPoint" />
          </mxGeometry>
        </mxCell>
        <mxCell id="K7_w2QCnUeSxzUvsQyZu-19" value="" style="endArrow=classic;html=1;rounded=0;exitX=0.5;exitY=0;exitDx=0;exitDy=0;entryX=0;entryY=0.5;entryDx=0;entryDy=0;" parent="1" source="K7_w2QCnUeSxzUvsQyZu-1" target="K7_w2QCnUeSxzUvsQyZu-12" edge="1">
          <mxGeometry width="50" height="50" relative="1" as="geometry">
            <mxPoint x="567" y="460.75" as="sourcePoint" />
            <mxPoint x="617" y="410.75" as="targetPoint" />
            <Array as="points">
              <mxPoint x="437" y="190.75" />
            </Array>
          </mxGeometry>
        </mxCell>
        <mxCell id="K7_w2QCnUeSxzUvsQyZu-20" value="" style="endArrow=classic;html=1;rounded=0;exitX=0.5;exitY=1;exitDx=0;exitDy=0;entryX=0;entryY=0.5;entryDx=0;entryDy=0;" parent="1" source="K7_w2QCnUeSxzUvsQyZu-1" target="K7_w2QCnUeSxzUvsQyZu-7" edge="1">
          <mxGeometry width="50" height="50" relative="1" as="geometry">
            <mxPoint x="477" y="570.75" as="sourcePoint" />
            <mxPoint x="597" y="570.75" as="targetPoint" />
            <Array as="points">
              <mxPoint x="437" y="660.75" />
            </Array>
          </mxGeometry>
        </mxCell>
        <mxCell id="K7_w2QCnUeSxzUvsQyZu-22" value="" style="endArrow=classic;html=1;rounded=0;exitX=1;exitY=0.5;exitDx=0;exitDy=0;entryX=0;entryY=0.5;entryDx=0;entryDy=0;" parent="1" source="lfGdwqrzFvod651RKOuG-2" target="K7_w2QCnUeSxzUvsQyZu-1" edge="1">
          <mxGeometry width="50" height="50" relative="1" as="geometry">
            <mxPoint x="233.00000000000023" y="427" as="sourcePoint" />
            <mxPoint x="447" y="430" as="targetPoint" />
          </mxGeometry>
        </mxCell>
        <mxCell id="K7_w2QCnUeSxzUvsQyZu-24" value="" style="endArrow=classic;html=1;rounded=0;exitX=1;exitY=0;exitDx=0;exitDy=0;entryX=0;entryY=1;entryDx=0;entryDy=0;" parent="1" source="lfGdwqrzFvod651RKOuG-5" edge="1" target="K7_w2QCnUeSxzUvsQyZu-1">
          <mxGeometry width="50" height="50" relative="1" as="geometry">
            <mxPoint x="226.4974746830593" y="550.5025253169406" as="sourcePoint" />
            <mxPoint x="347" y="470" as="targetPoint" />
          </mxGeometry>
        </mxCell>
        <mxCell id="K7_w2QCnUeSxzUvsQyZu-25" value="" style="endArrow=classic;html=1;rounded=0;exitX=1;exitY=1;exitDx=0;exitDy=0;entryX=0;entryY=0;entryDx=0;entryDy=0;" parent="1" source="lfGdwqrzFvod651RKOuG-3" target="K7_w2QCnUeSxzUvsQyZu-1" edge="1">
          <mxGeometry width="50" height="50" relative="1" as="geometry">
            <mxPoint x="209.42640687119297" y="302.42640687119297" as="sourcePoint" />
            <mxPoint x="447" y="420" as="targetPoint" />
          </mxGeometry>
        </mxCell>
        <mxCell id="K7_w2QCnUeSxzUvsQyZu-26" value="&lt;font style=&quot;font-size: 20px;&quot; face=&quot;Times New Roman&quot;&gt;Perception of&amp;nbsp;&lt;/font&gt;&lt;div style=&quot;font-size: 20px;&quot;&gt;&lt;font style=&quot;font-size: 20px;&quot;&gt;&lt;font style=&quot;font-size: 20px;&quot; face=&quot;Times New Roman&quot;&gt;Immigration&amp;nbsp;&lt;/font&gt;&lt;span style=&quot;font-family: jk4Szua_Z0j4yDkiBy7d; font-size: 20px;&quot;&gt;Discrimination&lt;/span&gt;&lt;/font&gt;&lt;/div&gt;&lt;div style=&quot;font-size: 20px;&quot;&gt;&lt;font style=&quot;font-size: 20px;&quot;&gt;&lt;span style=&quot;font-family: jk4Szua_Z0j4yDkiBy7d; font-size: 20px;&quot;&gt;among&amp;nbsp;&lt;/span&gt;&lt;span style=&quot;font-family: jk4Szua_Z0j4yDkiBy7d; font-size: 20px;&quot;&gt;Adolescents&lt;/span&gt;&lt;/font&gt;&lt;/div&gt;" style="text;strokeColor=none;fillColor=none;html=1;fontSize=20;fontStyle=1;verticalAlign=middle;align=center;" parent="1" vertex="1">
          <mxGeometry x="317" y="380" width="240" height="86" as="geometry" />
        </mxCell>
        <mxCell id="K7_w2QCnUeSxzUvsQyZu-27" value="&lt;div style=&quot;font-size: 18px;&quot;&gt;&lt;font style=&quot;font-size: 18px;&quot;&gt;&lt;font face=&quot;Times New Roman&quot; style=&quot;font-size: 18px;&quot;&gt;Intersectional Experiences&lt;/font&gt;&lt;/font&gt;&lt;/div&gt;&lt;div style=&quot;font-size: 18px;&quot;&gt;&lt;font style=&quot;font-size: 18px;&quot;&gt;&lt;font face=&quot;Times New Roman&quot; style=&quot;font-size: 18px;&quot;&gt;of&amp;nbsp;&lt;/font&gt;&lt;/font&gt;&lt;font face=&quot;Times New Roman&quot;&gt;Perceived&amp;nbsp;&lt;/font&gt;&lt;font face=&quot;Times New Roman&quot;&gt;Immigration&lt;/font&gt;&lt;/div&gt;&lt;div style=&quot;font-size: 18px;&quot;&gt;&lt;span style=&quot;font-family: jk4Szua_Z0j4yDkiBy7d;&quot;&gt;Discrimination&lt;/span&gt;&lt;/div&gt;" style="text;strokeColor=none;fillColor=none;html=1;fontSize=16;fontStyle=0;verticalAlign=middle;align=center;" parent="1" vertex="1">
          <mxGeometry x="652" y="381.75" width="210" height="86" as="geometry" />
        </mxCell>
        <mxCell id="K7_w2QCnUeSxzUvsQyZu-31" value="&lt;div style=&quot;font-size: 18px;&quot;&gt;&lt;font style=&quot;font-size: 18px;&quot;&gt;&lt;font face=&quot;Times New Roman&quot; style=&quot;font-size: 18px;&quot;&gt;Uniqueness&amp;nbsp;&lt;/font&gt;&lt;/font&gt;&lt;font face=&quot;Times New Roman&quot;&gt;of&lt;/font&gt;&lt;font face=&quot;Times New Roman&quot;&gt;&amp;nbsp;&lt;/font&gt;&lt;/div&gt;&lt;div style=&quot;font-size: 18px;&quot;&gt;&lt;font face=&quot;Times New Roman&quot;&gt;Immigration&amp;nbsp;&lt;/font&gt;&lt;span style=&quot;font-family: jk4Szua_Z0j4yDkiBy7d;&quot;&gt;Discrimination&lt;/span&gt;&lt;/div&gt;" style="text;strokeColor=none;fillColor=none;html=1;fontSize=16;fontStyle=0;verticalAlign=middle;align=center;" parent="1" vertex="1">
          <mxGeometry x="652" y="147.75" width="210" height="86" as="geometry" />
        </mxCell>
        <mxCell id="K7_w2QCnUeSxzUvsQyZu-32" value="&lt;div style=&quot;font-size: 18px;&quot;&gt;&lt;font style=&quot;font-size: 18px;&quot;&gt;&lt;font face=&quot;Times New Roman&quot; style=&quot;font-size: 18px;&quot;&gt;Cultural and Contextual&lt;/font&gt;&lt;/font&gt;&lt;/div&gt;&lt;div style=&quot;font-size: 18px;&quot;&gt;&lt;font style=&quot;font-size: 18px;&quot;&gt;&lt;font face=&quot;Times New Roman&quot; style=&quot;font-size: 18px;&quot;&gt;Experiences&amp;nbsp;&lt;/font&gt;&lt;/font&gt;&lt;font face=&quot;Times New Roman&quot;&gt;of&amp;nbsp;&lt;/font&gt;&lt;font face=&quot;Times New Roman&quot;&gt;Perceived&lt;/font&gt;&lt;/div&gt;&lt;div style=&quot;font-size: 18px;&quot;&gt;&lt;font face=&quot;Times New Roman&quot;&gt;Immigration&amp;nbsp;&lt;/font&gt;&lt;span style=&quot;font-family: jk4Szua_Z0j4yDkiBy7d;&quot;&gt;Discrimination&lt;/span&gt;&lt;/div&gt;" style="text;strokeColor=none;fillColor=none;html=1;fontSize=16;fontStyle=0;verticalAlign=middle;align=center;" parent="1" vertex="1">
          <mxGeometry x="652" y="617.75" width="210" height="86" as="geometry" />
        </mxCell>
        <mxCell id="K7_w2QCnUeSxzUvsQyZu-35" value="" style="line;strokeWidth=1;html=1;" parent="1" vertex="1">
          <mxGeometry x="1038" y="184" width="200" height="10" as="geometry" />
        </mxCell>
        <mxCell id="K7_w2QCnUeSxzUvsQyZu-37" value="" style="line;strokeWidth=1;html=1;" parent="1" vertex="1">
          <mxGeometry x="1050" y="136" width="176" height="10" as="geometry" />
        </mxCell>
        <mxCell id="K7_w2QCnUeSxzUvsQyZu-38" value="" style="line;strokeWidth=1;html=1;" parent="1" vertex="1">
          <mxGeometry x="1050" y="232" width="176" height="10" as="geometry" />
        </mxCell>
        <mxCell id="K7_w2QCnUeSxzUvsQyZu-40" value="" style="line;strokeWidth=1;html=1;" parent="1" vertex="1">
          <mxGeometry x="1037" y="686.5" width="190" height="10" as="geometry" />
        </mxCell>
        <mxCell id="K7_w2QCnUeSxzUvsQyZu-41" value="" style="line;strokeWidth=1;html=1;" parent="1" vertex="1">
          <mxGeometry x="1038" y="437.5" width="197" height="10" as="geometry" />
        </mxCell>
        <mxCell id="K7_w2QCnUeSxzUvsQyZu-42" value="" style="line;strokeWidth=1;html=1;" parent="1" vertex="1">
          <mxGeometry x="1037" y="625.5" width="190" height="10" as="geometry" />
        </mxCell>
        <mxCell id="K7_w2QCnUeSxzUvsQyZu-43" value="&lt;font face=&quot;Times New Roman&quot; style=&quot;font-size: 18px;&quot;&gt;Socio-Political Climate&lt;/font&gt;" style="text;strokeColor=none;fillColor=none;html=1;fontSize=16;fontStyle=0;verticalAlign=middle;align=center;" parent="1" vertex="1">
          <mxGeometry x="1043.75" y="637.5" width="175.5" height="46" as="geometry" />
        </mxCell>
        <mxCell id="K7_w2QCnUeSxzUvsQyZu-44" value="&lt;font face=&quot;Times New Roman&quot; style=&quot;font-size: 18px;&quot;&gt;Language Barrier&lt;/font&gt;" style="text;strokeColor=none;fillColor=none;html=1;fontSize=16;fontStyle=0;verticalAlign=middle;align=center;" parent="1" vertex="1">
          <mxGeometry x="1044.5" y="581.5" width="175.5" height="46" as="geometry" />
        </mxCell>
        <mxCell id="K7_w2QCnUeSxzUvsQyZu-45" value="&lt;font face=&quot;Times New Roman&quot; style=&quot;font-size: 18px;&quot;&gt;Documentation&amp;nbsp;&lt;/font&gt;&lt;div&gt;&lt;font face=&quot;Times New Roman&quot; style=&quot;font-size: 18px;&quot;&gt;Status&lt;/font&gt;&lt;/div&gt;" style="text;strokeColor=none;fillColor=none;html=1;fontSize=16;fontStyle=0;verticalAlign=middle;align=center;" parent="1" vertex="1">
          <mxGeometry x="1044.5" y="699.5" width="175.5" height="46" as="geometry" />
        </mxCell>
        <mxCell id="K7_w2QCnUeSxzUvsQyZu-46" value="&lt;font face=&quot;Times New Roman&quot; style=&quot;font-size: 18px;&quot;&gt;Overt Discrimination&lt;/font&gt;" style="text;strokeColor=none;fillColor=none;html=1;fontSize=16;fontStyle=0;verticalAlign=middle;align=center;" parent="1" vertex="1">
          <mxGeometry x="1050.5" y="191" width="175.5" height="41" as="geometry" />
        </mxCell>
        <mxCell id="K7_w2QCnUeSxzUvsQyZu-47" value="&lt;span style=&quot;caret-color: rgb(0, 0, 0); color: rgb(0, 0, 0); font-family: &amp;quot;Times New Roman&amp;quot;; font-style: normal; font-variant-caps: normal; font-weight: 400; letter-spacing: normal; text-indent: 0px; text-transform: none; white-space: nowrap; word-spacing: 0px; -webkit-text-stroke-width: 0px; background-color: rgb(251, 251, 251); text-decoration: none; float: none; display: inline !important; font-size: 16px;&quot;&gt;&lt;font style=&quot;font-size: 16px;&quot;&gt;Direct&lt;/font&gt;&lt;/span&gt;&lt;div&gt;&lt;span style=&quot;font-size: 16px; font-family: &amp;quot;Times New Roman&amp;quot;; white-space: nowrap;&quot;&gt;Discrimination&lt;/span&gt;&lt;/div&gt;" style="text;whiteSpace=wrap;html=1;align=center;" parent="1" vertex="1">
          <mxGeometry x="1046" y="232" width="190" height="60" as="geometry" />
        </mxCell>
        <mxCell id="K7_w2QCnUeSxzUvsQyZu-48" value="&lt;font face=&quot;Times New Roman&quot; style=&quot;font-size: 18px;&quot;&gt;Subtle Discrimination&lt;/font&gt;" style="text;strokeColor=none;fillColor=none;html=1;fontSize=16;fontStyle=0;verticalAlign=middle;align=center;" parent="1" vertex="1">
          <mxGeometry x="1053.25" y="144" width="175.5" height="41" as="geometry" />
        </mxCell>
        <mxCell id="K7_w2QCnUeSxzUvsQyZu-49" value="&lt;span style=&quot;caret-color: rgb(0, 0, 0); color: rgb(0, 0, 0); font-family: &amp;quot;Times New Roman&amp;quot;; font-style: normal; font-variant-caps: normal; font-weight: 400; letter-spacing: normal; text-indent: 0px; text-transform: none; white-space: nowrap; word-spacing: 0px; -webkit-text-stroke-width: 0px; background-color: rgb(251, 251, 251); text-decoration: none; float: none; display: inline !important; font-size: 17px;&quot;&gt;&lt;font style=&quot;font-size: 17px;&quot;&gt;Indirect&lt;/font&gt;&lt;/span&gt;&lt;div style=&quot;font-size: 17px;&quot;&gt;&lt;span style=&quot;font-family: &amp;quot;Times New Roman&amp;quot;; white-space: nowrap;&quot;&gt;&lt;font style=&quot;font-size: 17px;&quot;&gt;Discrimination&lt;/font&gt;&lt;/span&gt;&lt;/div&gt;" style="text;whiteSpace=wrap;html=1;align=center;" parent="1" vertex="1">
          <mxGeometry x="1046" y="89" width="192" height="60" as="geometry" />
        </mxCell>
        <mxCell id="K7_w2QCnUeSxzUvsQyZu-50" value="" style="line;strokeWidth=1;html=1;" parent="1" vertex="1">
          <mxGeometry x="1038.5" y="400.5" width="197" height="10" as="geometry" />
        </mxCell>
        <mxCell id="K7_w2QCnUeSxzUvsQyZu-51" value="" style="line;strokeWidth=1;html=1;" parent="1" vertex="1">
          <mxGeometry x="1053" y="474.5" width="168" height="10" as="geometry" />
        </mxCell>
        <mxCell id="K7_w2QCnUeSxzUvsQyZu-52" value="" style="line;strokeWidth=1;html=1;" parent="1" vertex="1">
          <mxGeometry x="1056" y="360.5" width="162" height="10" as="geometry" />
        </mxCell>
        <mxCell id="K7_w2QCnUeSxzUvsQyZu-53" value="&lt;font face=&quot;Times New Roman&quot; style=&quot;font-size: 18px;&quot;&gt;Racism&lt;/font&gt;" style="text;strokeColor=none;fillColor=none;html=1;fontSize=16;fontStyle=0;verticalAlign=middle;align=center;" parent="1" vertex="1">
          <mxGeometry x="1092.5" y="329.5" width="88" height="41" as="geometry" />
        </mxCell>
        <mxCell id="K7_w2QCnUeSxzUvsQyZu-54" value="&lt;font face=&quot;Times New Roman&quot; style=&quot;font-size: 18px;&quot;&gt;Xenophobia&lt;/font&gt;" style="text;strokeColor=none;fillColor=none;html=1;fontSize=16;fontStyle=0;verticalAlign=middle;align=center;" parent="1" vertex="1">
          <mxGeometry x="1092.5" y="364.5" width="88" height="41" as="geometry" />
        </mxCell>
        <mxCell id="K7_w2QCnUeSxzUvsQyZu-55" value="&lt;font face=&quot;Times New Roman&quot; style=&quot;font-size: 18px;&quot;&gt;Ingroup Discrimination&lt;/font&gt;" style="text;strokeColor=none;fillColor=none;html=1;fontSize=16;fontStyle=0;verticalAlign=middle;align=center;" parent="1" vertex="1">
          <mxGeometry x="1044.5" y="403" width="191" height="41" as="geometry" />
        </mxCell>
        <mxCell id="K7_w2QCnUeSxzUvsQyZu-56" value="&lt;font style=&quot;font-size: 17px;&quot; face=&quot;Times New Roman&quot;&gt;Stereotypes in the Media&lt;/font&gt;" style="text;strokeColor=none;fillColor=none;html=1;fontSize=17;fontStyle=0;verticalAlign=middle;align=center;" parent="1" vertex="1">
          <mxGeometry x="1037.25" y="437.5" width="200" height="41" as="geometry" />
        </mxCell>
        <mxCell id="K7_w2QCnUeSxzUvsQyZu-57" value="&lt;font face=&quot;Times New Roman&quot; style=&quot;font-size: 18px;&quot;&gt;Colorism&lt;/font&gt;" style="text;strokeColor=none;fillColor=none;html=1;fontSize=16;fontStyle=0;verticalAlign=middle;align=center;" parent="1" vertex="1">
          <mxGeometry x="1087" y="478.5" width="88" height="41" as="geometry" />
        </mxCell>
        <mxCell id="K7_w2QCnUeSxzUvsQyZu-58" value="" style="endArrow=classic;startArrow=classic;html=1;rounded=0;edgeStyle=orthogonalEdgeStyle;curved=1;exitX=1.003;exitY=0.856;exitDx=0;exitDy=0;exitPerimeter=0;" parent="1" edge="1" target="K7_w2QCnUeSxzUvsQyZu-10" source="K7_w2QCnUeSxzUvsQyZu-55">
          <mxGeometry width="50" height="50" relative="1" as="geometry">
            <mxPoint x="1240" y="437.5" as="sourcePoint" />
            <mxPoint x="1238" y="639" as="targetPoint" />
            <Array as="points">
              <mxPoint x="1267" y="438" />
              <mxPoint x="1267" y="670" />
            </Array>
          </mxGeometry>
        </mxCell>
        <mxCell id="K7_w2QCnUeSxzUvsQyZu-61" value="" style="endArrow=classic;startArrow=classic;html=1;rounded=0;edgeStyle=orthogonalEdgeStyle;curved=1;exitX=0.995;exitY=0.416;exitDx=0;exitDy=0;exitPerimeter=0;" parent="1" edge="1" target="K7_w2QCnUeSxzUvsQyZu-10" source="K7_w2QCnUeSxzUvsQyZu-9">
          <mxGeometry width="50" height="50" relative="1" as="geometry">
            <mxPoint x="1244.13" y="172.47" as="sourcePoint" />
            <mxPoint x="1236.13" y="712" as="targetPoint" />
            <Array as="points">
              <mxPoint x="1307" y="172" />
              <mxPoint x="1307" y="712" />
            </Array>
          </mxGeometry>
        </mxCell>
        <mxCell id="lfGdwqrzFvod651RKOuG-1" value="" style="endArrow=classic;startArrow=classic;html=1;rounded=0;edgeStyle=orthogonalEdgeStyle;curved=1;" edge="1" parent="1" target="K7_w2QCnUeSxzUvsQyZu-8">
          <mxGeometry width="50" height="50" relative="1" as="geometry">
            <mxPoint x="1229" y="230" as="sourcePoint" />
            <mxPoint x="1237" y="468" as="targetPoint" />
            <Array as="points">
              <mxPoint x="1273" y="230" />
              <mxPoint x="1273" y="460" />
            </Array>
          </mxGeometry>
        </mxCell>
        <mxCell id="lfGdwqrzFvod651RKOuG-2" value="" style="ellipse;whiteSpace=wrap;html=1;aspect=fixed;" vertex="1" parent="1">
          <mxGeometry x="97" y="354.5" width="140" height="140" as="geometry" />
        </mxCell>
        <mxCell id="lfGdwqrzFvod651RKOuG-3" value="" style="ellipse;whiteSpace=wrap;html=1;aspect=fixed;" vertex="1" parent="1">
          <mxGeometry x="97" y="167" width="140" height="140" as="geometry" />
        </mxCell>
        <mxCell id="lfGdwqrzFvod651RKOuG-8" value="" style="edgeStyle=orthogonalEdgeStyle;rounded=0;orthogonalLoop=1;jettySize=auto;html=1;" edge="1" parent="1" source="lfGdwqrzFvod651RKOuG-4" target="K7_w2QCnUeSxzUvsQyZu-1">
          <mxGeometry relative="1" as="geometry" />
        </mxCell>
        <mxCell id="lfGdwqrzFvod651RKOuG-4" value="Friends/Peers" style="text;html=1;align=center;verticalAlign=middle;whiteSpace=wrap;rounded=0;fontFamily=Times New Roman;fontSize=20;" vertex="1" parent="1">
          <mxGeometry x="92" y="399.75" width="150" height="49.5" as="geometry" />
        </mxCell>
        <mxCell id="lfGdwqrzFvod651RKOuG-5" value="" style="ellipse;whiteSpace=wrap;html=1;aspect=fixed;" vertex="1" parent="1">
          <mxGeometry x="97" y="534.5" width="140" height="140" as="geometry" />
        </mxCell>
        <mxCell id="lfGdwqrzFvod651RKOuG-6" value="Family" style="text;html=1;align=center;verticalAlign=middle;whiteSpace=wrap;rounded=0;fontFamily=Times New Roman;fontSize=20;" vertex="1" parent="1">
          <mxGeometry x="137" y="222" width="60" height="30" as="geometry" />
        </mxCell>
        <mxCell id="lfGdwqrzFvod651RKOuG-7" value="School/&lt;div&gt;Community&lt;/div&gt;" style="text;html=1;align=center;verticalAlign=middle;whiteSpace=wrap;rounded=0;fontFamily=Times New Roman;fontSize=20;" vertex="1" parent="1">
          <mxGeometry x="102" y="573.25" width="130" height="62.25" as="geometry" />
        </mxCell>
      </root>
    </mxGraphModel>
  </diagram>
</mxfile>
